<?xml version="1.0" encoding="UTF-8"?>
<svg id="Layer_1" xmlns="http://www.w3.org/2000/svg" version="1.1" viewBox="0 0 24 24">
  <!-- Generator: Adobe Illustrator 30.2.1, SVG Export Plug-In . SVG Version: 2.1.1 Build 1)  -->
  <defs>
    <style>
      .st0 {
        fill: none;
        stroke: #000;
        stroke-linecap: round;
        stroke-linejoin: round;
        stroke-width: 2px;
      }
    </style>
  </defs>
  <path class="st0" d="M3,16.3c.1.4.2.8,0,1.2l-1.1,3.3c-.1.5.2,1.1.8,1.2.2,0,.3,0,.5,0l3.4-1c.4,0,.7,0,1.1,0,5,2.3,11,.2,13.3-4.8,2.3-5,.2-11-4.8-13.3-5-2.3-11-.2-13.3,4.8-1.3,2.7-1.3,5.9,0,8.6"/>
  <path class="st0" d="M8,14.2s1.5,2,4,2,4-2,4-2"/>
  <line class="st0" x1="9" y1="10.2" x2="9" y2="10.2"/>
  <line class="st0" x1="15" y1="10.2" x2="15" y2="10.2"/>
</svg>